<svg width="512" height="512" viewBox="0 0 512 512" fill="none" xmlns="http://www.w3.org/2000/svg">
  <rect width="512" height="512" rx="128" fill="url(#bg)" />
  <rect x="54" y="54" width="404" height="404" rx="92" fill="#FFF9EF" fill-opacity="0.9" />
  <path d="M120 164C120 141.909 137.909 124 160 124H352C374.091 124 392 141.909 392 164V348C392 370.091 374.091 388 352 388H160C137.909 388 120 370.091 120 348V164Z" fill="#103B2F"/>
  <rect x="148" y="166" width="216" height="120" rx="24" fill="#2DAA7A"/>
  <rect x="148" y="306" width="216" height="28" rx="14" fill="#F6F1DE"/>
  <rect x="148" y="346" width="136" height="18" rx="9" fill="#D7E5DD"/>
  <path d="M186 238L213.76 182H237.12L264.88 238H240.8L236.8 228.8H213.04L209.12 238H186ZM218.96 214H230.88L224.88 199.68L218.96 214Z" fill="#103B2F"/>
  <path d="M277.562 239V182H302.362C316.922 182 326.522 190.16 326.522 203.2C326.522 216.24 316.922 224.4 302.362 224.4H298.042V239H277.562ZM298.042 208.8H300.922C304.922 208.8 307.082 206.64 307.082 203.2C307.082 199.76 304.922 197.6 300.922 197.6H298.042V208.8Z" fill="#103B2F"/>
  <defs>
    <linearGradient id="bg" x1="64" y1="46" x2="446" y2="470" gradientUnits="userSpaceOnUse">
      <stop stop-color="#FEDB9F"/>
      <stop offset="0.5" stop-color="#6FD3AC"/>
      <stop offset="1" stop-color="#103B2F"/>
    </linearGradient>
  </defs>
</svg>
